<?xml version="1.0" encoding="UTF-8" standalone="no"?>
<!DOCTYPE svg PUBLIC "-//W3C//DTD SVG 1.1//EN"
 "http://www.w3.org/Graphics/SVG/1.1/DTD/svg11.dtd">
<!-- Generated by graphviz version 2.40.1 (20161225.0304)
 -->
<!-- Title: parrot_accounts Pages: 1 -->
<svg width="1387pt" height="321pt"
 viewBox="0.00 0.00 1387.28 320.50" xmlns="http://www.w3.org/2000/svg" xmlns:xlink="http://www.w3.org/1999/xlink">
<g id="graph0" class="graph" transform="scale(1 1) rotate(0) translate(4 316.5)">
<title>parrot_accounts</title>
<polygon fill="#ffffff" stroke="transparent" points="-4,4 -4,-316.5 1383.2756,-316.5 1383.2756,4 -4,4"/>
<!-- sys::clock -->
<g id="node1" class="node">
<title>sys::clock</title>
<ellipse fill="none" stroke="#000000" cx="128.808" cy="-18" rx="53.8213" ry="18"/>
<text text-anchor="middle" x="128.808" y="-13.2" font-family="Times,serif" font-size="16.00" fill="#000000">sys::clock</text>
</g>
<!-- spl::token::PROGRAM_ID -->
<g id="node2" class="node">
<title>spl::token::PROGRAM_ID</title>
<ellipse fill="none" stroke="#000000" cx="128.808" cy="-72" rx="128.6163" ry="18"/>
<text text-anchor="middle" x="128.808" y="-67.2" font-family="Times,serif" font-size="16.00" fill="#000000">spl::token::PROGRAM_ID</text>
</g>
<!-- aggregator -->
<g id="node3" class="node">
<title>aggregator</title>
<polygon fill="none" stroke="#000000" points="640.9061,-58 640.9061,-106 774.2108,-106 774.2108,-58 640.9061,-58"/>
<text text-anchor="middle" x="707.5585" y="-89.2" font-family="Times,serif" font-size="16.00" fill="#000000">oracle</text>
<polyline fill="none" stroke="#000000" points="640.9061,-82 774.2108,-82 "/>
<text text-anchor="middle" x="707.5585" y="-65.2" font-family="Times,serif" font-size="16.00" fill="#000000">[flux::Aggregator]</text>
</g>
<!-- vault_owner -->
<g id="node4" class="node">
<title>vault_owner</title>
<ellipse fill="none" stroke="#000000" cx="439.9368" cy="-88" rx="100.3898" ry="18"/>
<text text-anchor="middle" x="439.9368" y="-83.2" font-family="Times,serif" font-size="16.00" fill="#000000">vault_owner (signer)</text>
</g>
<!-- debt_type -->
<g id="node5" class="node">
<title>debt_type</title>
<polygon fill="none" stroke="#000000" points="622.2577,-192 622.2577,-312 792.8593,-312 792.8593,-192 622.2577,-192"/>
<text text-anchor="middle" x="707.5585" y="-295.2" font-family="Times,serif" font-size="16.00" fill="#000000">debt_type</text>
<polyline fill="none" stroke="#000000" points="622.2577,-288 792.8593,-288 "/>
<text text-anchor="middle" x="707.5585" y="-271.2" font-family="Times,serif" font-size="16.00" fill="#000000">[parrot::DebtType]</text>
<polyline fill="none" stroke="#000000" points="622.2577,-264 792.8593,-264 "/>
<text text-anchor="middle" x="707.5585" y="-247.2" font-family="Times,serif" font-size="16.00" fill="#000000">+debt_token</text>
<polyline fill="none" stroke="#000000" points="622.2577,-240 792.8593,-240 "/>
<text text-anchor="middle" x="707.5585" y="-223.2" font-family="Times,serif" font-size="16.00" fill="#000000">+debt_originator</text>
<polyline fill="none" stroke="#000000" points="622.2577,-216 792.8593,-216 "/>
<text text-anchor="middle" x="707.5585" y="-199.2" font-family="Times,serif" font-size="16.00" fill="#000000">seeds = [pubkey, nonce]</text>
</g>
<!-- debt_token -->
<g id="node7" class="node">
<title>debt_token</title>
<polygon fill="none" stroke="#000000" points="870.6386,-259 870.6386,-307 996.8495,-307 996.8495,-259 870.6386,-259"/>
<text text-anchor="middle" x="933.744" y="-290.2" font-family="Times,serif" font-size="16.00" fill="#000000">debt_token</text>
<polyline fill="none" stroke="#000000" points="870.6386,-283 996.8495,-283 "/>
<text text-anchor="middle" x="933.744" y="-266.2" font-family="Times,serif" font-size="16.00" fill="#000000">[spl&#45;token::Mint]</text>
</g>
<!-- debt_type&#45;&gt;debt_token -->
<g id="edge2" class="edge">
<title>debt_type:debt_token&#45;&gt;debt_token:f0</title>
<path fill="none" stroke="#000000" d="M792.5585,-252C828.4983,-252 830.9397,-287.3154 860.5985,-293.9371"/>
<polygon fill="#000000" stroke="#000000" points="860.4337,-297.4389 870.744,-295 861.1632,-290.477 860.4337,-297.4389"/>
<text text-anchor="middle" x="818.7548" y="-269.8" font-family="Times,serif" font-size="14.00" fill="#000000">==</text>
</g>
<!-- debt_originator_authority -->
<g id="node9" class="node">
<title>debt_originator_authority</title>
<ellipse fill="none" stroke="#000000" cx="1226.9522" cy="-122" rx="152.147" ry="18"/>
<text text-anchor="middle" x="1226.9522" y="-117.2" font-family="Times,serif" font-size="16.00" fill="#000000">debt_originator_authority (PDA)</text>
</g>
<!-- debt_type&#45;&gt;debt_originator_authority -->
<g id="edge3" class="edge">
<title>debt_type:seeds&#45;&gt;debt_originator_authority</title>
<path fill="none" stroke="#000000" d="M792.5585,-204C836.1108,-204 806.5378,-142.077 844.6503,-121 942.821,-66.7094 1078.0106,-84.5442 1158.5424,-102.9305"/>
<polygon fill="#000000" stroke="#000000" points="1158.0327,-106.406 1168.5683,-105.2871 1159.6345,-99.5917 1158.0327,-106.406"/>
<text text-anchor="middle" x="933.744" y="-123.8" font-family="Times,serif" font-size="14.00" fill="#000000">PDA</text>
</g>
<!-- debt_originator -->
<g id="node10" class="node">
<title>debt_originator</title>
<polygon fill="none" stroke="#000000" points="844.6503,-144 844.6503,-240 1022.8378,-240 1022.8378,-144 844.6503,-144"/>
<text text-anchor="middle" x="933.744" y="-223.2" font-family="Times,serif" font-size="16.00" fill="#000000">debt_originator</text>
<polyline fill="none" stroke="#000000" points="844.6503,-216 1022.8378,-216 "/>
<text text-anchor="middle" x="933.744" y="-199.2" font-family="Times,serif" font-size="16.00" fill="#000000">[spl&#45;token::Account mut]</text>
<polyline fill="none" stroke="#000000" points="844.6503,-192 1022.8378,-192 "/>
<text text-anchor="middle" x="933.744" y="-175.2" font-family="Times,serif" font-size="16.00" fill="#000000">+mint</text>
<polyline fill="none" stroke="#000000" points="844.6503,-168 1022.8378,-168 "/>
<text text-anchor="middle" x="933.744" y="-151.2" font-family="Times,serif" font-size="16.00" fill="#000000">+owner</text>
</g>
<!-- debt_type&#45;&gt;debt_originator -->
<g id="edge1" class="edge">
<title>debt_type:debt_originator&#45;&gt;debt_originator:f0</title>
<path fill="none" stroke="#000000" d="M792.5585,-228C811.9469,-228 819.1796,-228 834.5795,-228"/>
<polygon fill="#000000" stroke="#000000" points="834.7441,-231.5001 844.744,-228 834.744,-224.5001 834.7441,-231.5001"/>
<text text-anchor="middle" x="818.7548" y="-230.8" font-family="Times,serif" font-size="14.00" fill="#000000">==</text>
</g>
<!-- vault_type -->
<g id="node6" class="node">
<title>vault_type</title>
<polygon fill="none" stroke="#000000" points="355.8509,-125 355.8509,-245 524.0228,-245 524.0228,-125 355.8509,-125"/>
<text text-anchor="middle" x="439.9368" y="-228.2" font-family="Times,serif" font-size="16.00" fill="#000000">vault_type</text>
<polyline fill="none" stroke="#000000" points="355.8509,-221 524.0228,-221 "/>
<text text-anchor="middle" x="439.9368" y="-204.2" font-family="Times,serif" font-size="16.00" fill="#000000">[parrot::VaultType mut]</text>
<polyline fill="none" stroke="#000000" points="355.8509,-197 524.0228,-197 "/>
<text text-anchor="middle" x="439.9368" y="-180.2" font-family="Times,serif" font-size="16.00" fill="#000000">+debt_type</text>
<polyline fill="none" stroke="#000000" points="355.8509,-173 524.0228,-173 "/>
<text text-anchor="middle" x="439.9368" y="-156.2" font-family="Times,serif" font-size="16.00" fill="#000000">+collateral_token</text>
<polyline fill="none" stroke="#000000" points="355.8509,-149 524.0228,-149 "/>
<text text-anchor="middle" x="439.9368" y="-132.2" font-family="Times,serif" font-size="16.00" fill="#000000">+price_oracle</text>
</g>
<!-- vault_type&#45;&gt;aggregator -->
<g id="edge8" class="edge">
<title>vault_type:price_oracle&#45;&gt;aggregator:f0</title>
<path fill="none" stroke="#000000" d="M523.9368,-137C575.6191,-137 584.3207,-99.3643 630.4625,-94.5129"/>
<polygon fill="#000000" stroke="#000000" points="630.749,-98.0029 640.5585,-94 630.3938,-91.0119 630.749,-98.0029"/>
<text text-anchor="middle" x="581.3197" y="-131.8" font-family="Times,serif" font-size="14.00" fill="#000000">==</text>
</g>
<!-- vault_type&#45;&gt;debt_type -->
<g id="edge6" class="edge">
<title>vault_type:debt_type&#45;&gt;debt_type:f0</title>
<path fill="none" stroke="#000000" d="M523.9368,-185C587.5865,-185 558.8596,-287.7658 612.4055,-299.0058"/>
<polygon fill="#000000" stroke="#000000" points="612.265,-302.5087 622.5585,-300 612.9472,-295.542 612.265,-302.5087"/>
<text text-anchor="middle" x="581.3197" y="-297.8" font-family="Times,serif" font-size="14.00" fill="#000000">has_one</text>
</g>
<!-- collateral_token -->
<g id="node8" class="node">
<title>collateral_token</title>
<polygon fill="none" stroke="#000000" points="629.3593,-125 629.3593,-173 785.7577,-173 785.7577,-125 629.3593,-125"/>
<text text-anchor="middle" x="707.5585" y="-156.2" font-family="Times,serif" font-size="16.00" fill="#000000">collateral_token_mint</text>
<polyline fill="none" stroke="#000000" points="629.3593,-149 785.7577,-149 "/>
<text text-anchor="middle" x="707.5585" y="-132.2" font-family="Times,serif" font-size="16.00" fill="#000000">[spl&#45;token::Mint]</text>
</g>
<!-- vault_type&#45;&gt;collateral_token -->
<g id="edge7" class="edge">
<title>vault_type:collateral_token&#45;&gt;collateral_token:f0</title>
<path fill="none" stroke="#000000" d="M523.9368,-161C567.2124,-161 580.5669,-161 619.1673,-161"/>
<polygon fill="#000000" stroke="#000000" points="619.5585,-164.5001 629.5585,-161 619.5584,-157.5001 619.5585,-164.5001"/>
<text text-anchor="middle" x="581.3197" y="-163.8" font-family="Times,serif" font-size="14.00" fill="#000000">==</text>
</g>
<!-- debt_originator&#45;&gt;debt_originator_authority -->
<g id="edge4" class="edge">
<title>debt_originator:owner&#45;&gt;debt_originator_authority</title>
<path fill="none" stroke="#000000" stroke-dasharray="1,5" d="M1022.744,-156C1065.9643,-156 1113.6399,-148.4976 1152.0482,-140.5413"/>
<polygon fill="#000000" stroke="#000000" points="1153.059,-143.9047 1162.1131,-138.4025 1151.6039,-137.0576 1153.059,-143.9047"/>
<text text-anchor="middle" x="1048.7333" y="-157.8" font-family="Times,serif" font-size="14.00" fill="#000000">==</text>
</g>
<!-- receiver -->
<g id="node12" class="node">
<title>receiver</title>
<polygon fill="none" stroke="#000000" points="1137.8584,-169 1137.8584,-241 1316.0459,-241 1316.0459,-169 1137.8584,-169"/>
<text text-anchor="middle" x="1226.9522" y="-224.2" font-family="Times,serif" font-size="16.00" fill="#000000">receiver</text>
<polyline fill="none" stroke="#000000" points="1137.8584,-217 1316.0459,-217 "/>
<text text-anchor="middle" x="1226.9522" y="-200.2" font-family="Times,serif" font-size="16.00" fill="#000000">[spl&#45;token::Account mut]</text>
<polyline fill="none" stroke="#000000" points="1137.8584,-193 1316.0459,-193 "/>
<text text-anchor="middle" x="1226.9522" y="-176.2" font-family="Times,serif" font-size="16.00" fill="#000000">+mint</text>
</g>
<!-- debt_originator&#45;&gt;receiver -->
<g id="edge5" class="edge">
<title>debt_originator:mint&#45;&gt;receiver:mint</title>
<path fill="none" stroke="#000000" stroke-dasharray="1,5" d="M1022.744,-180C1070.3492,-180 1084.7572,-180.8643 1127.694,-180.9859"/>
<polygon fill="#000000" stroke="#000000" points="1127.9473,-184.4861 1137.9522,-181 1127.957,-177.4861 1127.9473,-184.4861"/>
<text text-anchor="middle" x="1048.7333" y="-182.8" font-family="Times,serif" font-size="14.00" fill="#000000">==</text>
</g>
<!-- vault -->
<g id="node11" class="node">
<title>vault</title>
<polygon fill="none" stroke="#000000" points="60.601,-109 60.601,-205 197.015,-205 197.015,-109 60.601,-109"/>
<text text-anchor="middle" x="128.808" y="-188.2" font-family="Times,serif" font-size="16.00" fill="#000000">vault</text>
<polyline fill="none" stroke="#000000" points="60.601,-181 197.015,-181 "/>
<text text-anchor="middle" x="128.808" y="-164.2" font-family="Times,serif" font-size="16.00" fill="#000000">[parrot::Vault mut]</text>
<polyline fill="none" stroke="#000000" points="60.601,-157 197.015,-157 "/>
<text text-anchor="middle" x="128.808" y="-140.2" font-family="Times,serif" font-size="16.00" fill="#000000">+vault_type</text>
<polyline fill="none" stroke="#000000" points="60.601,-133 197.015,-133 "/>
<text text-anchor="middle" x="128.808" y="-116.2" font-family="Times,serif" font-size="16.00" fill="#000000">+owner</text>
</g>
<!-- vault&#45;&gt;vault_owner -->
<g id="edge10" class="edge">
<title>vault:owner&#45;&gt;vault_owner</title>
<path fill="none" stroke="#000000" d="M196.808,-121C253.4777,-121 316.9078,-112.0879 364.7675,-103.5265"/>
<polygon fill="#000000" stroke="#000000" points="365.5262,-106.946 374.7358,-101.7083 364.2701,-100.0596 365.5262,-106.946"/>
<text text-anchor="middle" x="298.554" y="-118.8" font-family="Times,serif" font-size="14.00" fill="#000000">==</text>
</g>
<!-- vault&#45;&gt;vault_type -->
<g id="edge9" class="edge">
<title>vault:vault_type&#45;&gt;vault_type:f0</title>
<path fill="none" stroke="#000000" d="M196.808,-145C273.9955,-145 275.1759,-225.2713 345.5347,-232.4832"/>
<polygon fill="#000000" stroke="#000000" points="345.7755,-235.9994 355.9368,-233 346.1229,-229.008 345.7755,-235.9994"/>
<text text-anchor="middle" x="298.554" y="-227.8" font-family="Times,serif" font-size="14.00" fill="#000000">has_one</text>
</g>
</g>
</svg>
