<?xml version="1.0" encoding="UTF-8" standalone="no"?>
<!DOCTYPE svg PUBLIC "-//W3C//DTD SVG 1.1//EN"
 "http://www.w3.org/Graphics/SVG/1.1/DTD/svg11.dtd">
<!-- Generated by graphviz version 2.40.1 (20161225.0304)
 -->
<!-- Title: parrot_accounts Pages: 1 -->
<svg width="472pt" height="268pt"
 viewBox="0.00 0.00 472.33 267.50" xmlns="http://www.w3.org/2000/svg" xmlns:xlink="http://www.w3.org/1999/xlink">
<g id="graph0" class="graph" transform="scale(1 1) rotate(0) translate(4 263.5)">
<title>parrot_accounts</title>
<polygon fill="#ffffff" stroke="transparent" points="-4,4 -4,-263.5 468.3306,-263.5 468.3306,4 -4,4"/>
<!-- sys::clock -->
<g id="node1" class="node">
<title>sys::clock</title>
<ellipse fill="none" stroke="#000000" cx="131.2135" cy="-18" rx="53.8213" ry="18"/>
<text text-anchor="middle" x="131.2135" y="-13.2" font-family="Times,serif" font-size="16.00" fill="#000000">sys::clock</text>
</g>
<!-- sys::rent -->
<g id="node2" class="node">
<title>sys::rent</title>
<ellipse fill="none" stroke="#000000" cx="131.2135" cy="-72" rx="47.2086" ry="18"/>
<text text-anchor="middle" x="131.2135" y="-67.2" font-family="Times,serif" font-size="16.00" fill="#000000">sys::rent</text>
</g>
<!-- sys::SYSTEM_PROGRAM -->
<g id="node3" class="node">
<title>sys::SYSTEM_PROGRAM</title>
<ellipse fill="none" stroke="#000000" cx="131.2135" cy="-126" rx="131.4274" ry="18"/>
<text text-anchor="middle" x="131.2135" y="-121.2" font-family="Times,serif" font-size="16.00" fill="#000000">sys::SYSTEM_PROGRAM</text>
</g>
<!-- vault -->
<g id="node4" class="node">
<title>vault</title>
<polygon fill="none" stroke="#000000" points="63.0065,-163 63.0065,-259 199.4205,-259 199.4205,-163 63.0065,-163"/>
<text text-anchor="middle" x="131.2135" y="-242.2" font-family="Times,serif" font-size="16.00" fill="#000000">vault</text>
<polyline fill="none" stroke="#000000" points="63.0065,-235 199.4205,-235 "/>
<text text-anchor="middle" x="131.2135" y="-218.2" font-family="Times,serif" font-size="16.00" fill="#000000">[parrot::Vault mut]</text>
<polyline fill="none" stroke="#000000" points="63.0065,-211 199.4205,-211 "/>
<text text-anchor="middle" x="131.2135" y="-194.2" font-family="Times,serif" font-size="16.00" fill="#000000">+vault_type</text>
<polyline fill="none" stroke="#000000" points="63.0065,-187 199.4205,-187 "/>
<text text-anchor="middle" x="131.2135" y="-170.2" font-family="Times,serif" font-size="16.00" fill="#000000">+owner</text>
</g>
<!-- vault_type -->
<g id="node5" class="node">
<title>vault_type</title>
<polygon fill="none" stroke="#000000" points="321.0727,-188 321.0727,-236 460.3539,-236 460.3539,-188 321.0727,-188"/>
<text text-anchor="middle" x="390.7133" y="-219.2" font-family="Times,serif" font-size="16.00" fill="#000000">vault_type</text>
<polyline fill="none" stroke="#000000" points="321.0727,-212 460.3539,-212 "/>
<text text-anchor="middle" x="390.7133" y="-195.2" font-family="Times,serif" font-size="16.00" fill="#000000">[parrot::VaultType]</text>
</g>
<!-- vault&#45;&gt;vault_type -->
<g id="edge1" class="edge">
<title>vault:vault_type&#45;&gt;vault_type:f0</title>
<path fill="none" stroke="#000000" d="M199.2135,-199C250.7913,-199 263.9512,-220.8812 310.5767,-223.7018"/>
<polygon fill="#000000" stroke="#000000" points="310.6147,-227.2044 320.7133,-224 310.8205,-220.2074 310.6147,-227.2044"/>
<text text-anchor="middle" x="289.7615" y="-224.8" font-family="Times,serif" font-size="14.00" fill="#000000">init</text>
</g>
<!-- owner -->
<g id="node6" class="node">
<title>owner</title>
<ellipse fill="none" stroke="#000000" cx="390.7133" cy="-151" rx="73.7348" ry="18"/>
<text text-anchor="middle" x="390.7133" y="-146.2" font-family="Times,serif" font-size="16.00" fill="#000000">owner (signer)</text>
</g>
<!-- vault&#45;&gt;owner -->
<g id="edge2" class="edge">
<title>vault:owner&#45;&gt;owner</title>
<path fill="none" stroke="#000000" d="M199.2135,-175C240.407,-175 286.2006,-169.4649 322.6756,-163.711"/>
<polygon fill="#000000" stroke="#000000" points="323.3929,-167.1405 332.7047,-162.0867 322.2737,-160.2305 323.3929,-167.1405"/>
<text text-anchor="middle" x="289.7615" y="-172.8" font-family="Times,serif" font-size="14.00" fill="#000000">init</text>
</g>
</g>
</svg>
