<?xml version="1.0" encoding="UTF-8" standalone="no"?>
<!DOCTYPE svg PUBLIC "-//W3C//DTD SVG 1.1//EN"
 "http://www.w3.org/Graphics/SVG/1.1/DTD/svg11.dtd">
<!-- Generated by graphviz version 2.40.1 (20161225.0304)
 -->
<!-- Title: parrot_accounts Pages: 1 -->
<svg width="648pt" height="314pt"
 viewBox="0.00 0.00 647.78 314.00" xmlns="http://www.w3.org/2000/svg" xmlns:xlink="http://www.w3.org/1999/xlink">
<g id="graph0" class="graph" transform="scale(1 1) rotate(0) translate(4 310)">
<title>parrot_accounts</title>
<polygon fill="#ffffff" stroke="transparent" points="-4,4 -4,-310 643.7795,-310 643.7795,4 -4,4"/>
<!-- sys::rent -->
<g id="node1" class="node">
<title>sys::rent</title>
<ellipse fill="none" stroke="#000000" cx="88.4805" cy="-55.5" rx="47.2086" ry="18"/>
<text text-anchor="middle" x="88.4805" y="-50.7" font-family="Times,serif" font-size="16.00" fill="#000000">sys::rent</text>
</g>
<!-- debt_type -->
<g id="node2" class="node">
<title>debt_type</title>
<polygon fill="none" stroke="#000000" points="288.4805,-233.5 288.4805,-305.5 425.0898,-305.5 425.0898,-233.5 288.4805,-233.5"/>
<text text-anchor="middle" x="356.7852" y="-288.7" font-family="Times,serif" font-size="16.00" fill="#000000">debt_type</text>
<polyline fill="none" stroke="#000000" points="288.4805,-281.5 425.0898,-281.5 "/>
<text text-anchor="middle" x="356.7852" y="-264.7" font-family="Times,serif" font-size="16.00" fill="#000000">[parrot::DebtType]</text>
<polyline fill="none" stroke="#000000" points="288.4805,-257.5 425.0898,-257.5 "/>
<text text-anchor="middle" x="356.7852" y="-240.7" font-family="Times,serif" font-size="16.00" fill="#000000">+owner</text>
</g>
<!-- owner -->
<g id="node7" class="node">
<title>owner</title>
<ellipse fill="none" stroke="#000000" cx="566.1622" cy="-245.5" rx="73.7348" ry="18"/>
<text text-anchor="middle" x="566.1622" y="-240.7" font-family="Times,serif" font-size="16.00" fill="#000000">owner (signer)</text>
</g>
<!-- debt_type&#45;&gt;owner -->
<g id="edge1" class="edge">
<title>debt_type:owner&#45;&gt;owner</title>
<path fill="none" stroke="#000000" d="M424.7852,-245.5C443.406,-245.5 463.4064,-245.5 482.3334,-245.5"/>
<polygon fill="#000000" stroke="#000000" points="482.42,-249.0001 492.42,-245.5 482.42,-242.0001 482.42,-249.0001"/>
<text text-anchor="middle" x="466.6494" y="-248.3" font-family="Times,serif" font-size="14.00" fill="#000000">==</text>
</g>
<!-- vault_type -->
<g id="node3" class="node">
<title>vault_type</title>
<polygon fill="none" stroke="#000000" points="0,-92.5 0,-260.5 176.9609,-260.5 176.9609,-92.5 0,-92.5"/>
<text text-anchor="middle" x="88.4805" y="-243.7" font-family="Times,serif" font-size="16.00" fill="#000000">vault_type</text>
<polyline fill="none" stroke="#000000" points="0,-236.5 176.9609,-236.5 "/>
<text text-anchor="middle" x="88.4805" y="-219.7" font-family="Times,serif" font-size="16.00" fill="#000000">[parrot::VaultType init]</text>
<polyline fill="none" stroke="#000000" points="0,-212.5 176.9609,-212.5 "/>
<text text-anchor="middle" x="88.4805" y="-195.7" font-family="Times,serif" font-size="16.00" fill="#000000">+debt_type</text>
<polyline fill="none" stroke="#000000" points="0,-188.5 176.9609,-188.5 "/>
<text text-anchor="middle" x="88.4805" y="-171.7" font-family="Times,serif" font-size="16.00" fill="#000000">+collateral_token</text>
<polyline fill="none" stroke="#000000" points="0,-164.5 176.9609,-164.5 "/>
<text text-anchor="middle" x="88.4805" y="-147.7" font-family="Times,serif" font-size="16.00" fill="#000000">+collateral_token_holder</text>
<polyline fill="none" stroke="#000000" points="0,-140.5 176.9609,-140.5 "/>
<text text-anchor="middle" x="88.4805" y="-123.7" font-family="Times,serif" font-size="16.00" fill="#000000">+price_oracle</text>
<polyline fill="none" stroke="#000000" points="0,-116.5 176.9609,-116.5 "/>
<text text-anchor="middle" x="88.4805" y="-99.7" font-family="Times,serif" font-size="16.00" fill="#000000">PDA = [pubkey, nonce]</text>
</g>
<!-- vault_type&#45;&gt;debt_type -->
<g id="edge2" class="edge">
<title>vault_type:debt_type&#45;&gt;debt_type:f0</title>
<path fill="none" stroke="#000000" d="M176.4805,-200.5C179.898,-200.5 254.6162,-266.708 280.3152,-287.398"/>
<polygon fill="#000000" stroke="#000000" points="278.6256,-290.4944 288.7852,-293.5 282.7173,-284.8148 278.6256,-290.4944"/>
<text text-anchor="middle" x="224.8887" y="-265.3" font-family="Times,serif" font-size="14.00" fill="#000000">init</text>
</g>
<!-- collateral_token -->
<g id="node4" class="node">
<title>collateral_token</title>
<polygon fill="none" stroke="#000000" points="503.0568,-131.5 503.0568,-179.5 629.2677,-179.5 629.2677,-131.5 503.0568,-131.5"/>
<text text-anchor="middle" x="566.1622" y="-162.7" font-family="Times,serif" font-size="16.00" fill="#000000">collateral_token</text>
<polyline fill="none" stroke="#000000" points="503.0568,-155.5 629.2677,-155.5 "/>
<text text-anchor="middle" x="566.1622" y="-138.7" font-family="Times,serif" font-size="16.00" fill="#000000">[spl&#45;token::Mint]</text>
</g>
<!-- vault_type&#45;&gt;collateral_token -->
<g id="edge3" class="edge">
<title>vault_type:collateral_token&#45;&gt;collateral_token:f0</title>
<path fill="none" stroke="#000000" d="M176.4805,-176.5C293.9429,-176.5 323.4602,-179.7928 440.7539,-173.5 464.8833,-172.2054 473.1404,-168.6441 493.0798,-167.7209"/>
<polygon fill="#000000" stroke="#000000" points="493.2413,-171.2183 503.1622,-167.5 493.0879,-164.22 493.2413,-171.2183"/>
<text text-anchor="middle" x="356.7852" y="-179.3" font-family="Times,serif" font-size="14.00" fill="#000000">init</text>
</g>
<!-- collateral_token_holder -->
<g id="node5" class="node">
<title>collateral_token_holder</title>
<polygon fill="none" stroke="#000000" points="272.8164,-67.5 272.8164,-163.5 440.7539,-163.5 440.7539,-67.5 272.8164,-67.5"/>
<text text-anchor="middle" x="356.7852" y="-146.7" font-family="Times,serif" font-size="16.00" fill="#000000">collateral_token_holder</text>
<polyline fill="none" stroke="#000000" points="272.8164,-139.5 440.7539,-139.5 "/>
<text text-anchor="middle" x="356.7852" y="-122.7" font-family="Times,serif" font-size="16.00" fill="#000000">[spl&#45;token::Account]</text>
<polyline fill="none" stroke="#000000" points="272.8164,-115.5 440.7539,-115.5 "/>
<text text-anchor="middle" x="356.7852" y="-98.7" font-family="Times,serif" font-size="16.00" fill="#000000">+mint</text>
<polyline fill="none" stroke="#000000" points="272.8164,-91.5 440.7539,-91.5 "/>
<text text-anchor="middle" x="356.7852" y="-74.7" font-family="Times,serif" font-size="16.00" fill="#000000">+owner</text>
</g>
<!-- vault_type&#45;&gt;collateral_token_holder -->
<g id="edge4" class="edge">
<title>vault_type:collateral_token_holder&#45;&gt;collateral_token_holder:f0</title>
<path fill="none" stroke="#000000" d="M176.4805,-152.5C215.6191,-152.5 227.922,-151.6645 262.4482,-151.5209"/>
<polygon fill="#000000" stroke="#000000" points="262.8235,-155.0202 272.8164,-151.5 262.8093,-148.0202 262.8235,-155.0202"/>
<text text-anchor="middle" x="224.8887" y="-154.3" font-family="Times,serif" font-size="14.00" fill="#000000">init</text>
</g>
<!-- vault_type&#45;&gt;collateral_token_holder -->
<g id="edge6" class="edge">
<title>vault_type:pda&#45;&gt;collateral_token_holder:owner</title>
<path fill="none" stroke="#000000" stroke-dasharray="1,5" d="M176.4805,-104.5C190.2978,-104.5 182.6238,-85.7221 194.9609,-79.5 222.5979,-65.5615 235.4011,-76.5598 262.5625,-79.0349"/>
<polygon fill="#000000" stroke="#000000" points="262.668,-82.5432 272.8164,-79.5 262.9853,-75.5503 262.668,-82.5432"/>
<text text-anchor="middle" x="224.8887" y="-82.3" font-family="Times,serif" font-size="14.00" fill="#000000">unchecked</text>
</g>
<!-- price_oracle -->
<g id="node6" class="node">
<title>price_oracle</title>
<polygon fill="none" stroke="#000000" points="290.1328,-.5 290.1328,-48.5 423.4375,-48.5 423.4375,-.5 290.1328,-.5"/>
<text text-anchor="middle" x="356.7852" y="-31.7" font-family="Times,serif" font-size="16.00" fill="#000000">price_oracle</text>
<polyline fill="none" stroke="#000000" points="290.1328,-24.5 423.4375,-24.5 "/>
<text text-anchor="middle" x="356.7852" y="-7.7" font-family="Times,serif" font-size="16.00" fill="#000000">[flux::Aggregator]</text>
</g>
<!-- vault_type&#45;&gt;price_oracle -->
<g id="edge5" class="edge">
<title>vault_type:price_oracle&#45;&gt;price_oracle:f0</title>
<path fill="none" stroke="#000000" d="M176.4805,-128.5C214.6135,-128.5 227.1233,-119.7149 254.8164,-93.5 273.365,-75.9414 263.909,-46.4657 279.7456,-38.5229"/>
<polygon fill="#000000" stroke="#000000" points="280.6735,-41.9063 289.7852,-36.5 279.2908,-35.0442 280.6735,-41.9063"/>
<text text-anchor="middle" x="224.8887" y="-129.3" font-family="Times,serif" font-size="14.00" fill="#000000">init</text>
</g>
<!-- collateral_token_holder&#45;&gt;collateral_token -->
<g id="edge7" class="edge">
<title>collateral_token_holder:mint&#45;&gt;collateral_token:f0</title>
<path fill="none" stroke="#000000" d="M440.7539,-103.5C476.6035,-103.5 466.2215,-155.6104 493.0415,-165.7882"/>
<polygon fill="#000000" stroke="#000000" points="492.7185,-169.2832 503.1622,-167.5 493.886,-162.3812 492.7185,-169.2832"/>
<text text-anchor="middle" x="466.6494" y="-143.3" font-family="Times,serif" font-size="14.00" fill="#000000">==</text>
</g>
</g>
</svg>
