<?xml version="1.0" encoding="UTF-8" standalone="no"?>
<!DOCTYPE svg PUBLIC "-//W3C//DTD SVG 1.1//EN"
 "http://www.w3.org/Graphics/SVG/1.1/DTD/svg11.dtd">
<!-- Generated by graphviz version 2.40.1 (20161225.0304)
 -->
<!-- Title: parrot_accounts Pages: 1 -->
<svg width="557pt" height="295pt"
 viewBox="0.00 0.00 557.05 295.00" xmlns="http://www.w3.org/2000/svg" xmlns:xlink="http://www.w3.org/1999/xlink">
<g id="graph0" class="graph" transform="scale(1 1) rotate(0) translate(4 291)">
<title>parrot_accounts</title>
<polygon fill="#ffffff" stroke="transparent" points="-4,4 -4,-291 553.0459,-291 553.0459,4 -4,4"/>
<!-- sys::rent -->
<g id="node1" class="node">
<title>sys::rent</title>
<ellipse fill="none" stroke="#000000" cx="83.5391" cy="-18" rx="47.2086" ry="18"/>
<text text-anchor="middle" x="83.5391" y="-13.2" font-family="Times,serif" font-size="16.00" fill="#000000">sys::rent</text>
</g>
<!-- clock -->
<g id="node2" class="node">
<title>clock</title>
<ellipse fill="none" stroke="#000000" cx="83.5391" cy="-72" rx="33.952" ry="18"/>
<text text-anchor="middle" x="83.5391" y="-67.2" font-family="Times,serif" font-size="16.00" fill="#000000">clock</text>
</g>
<!-- debt_type -->
<g id="node3" class="node">
<title>debt_type</title>
<polygon fill="none" stroke="#000000" points="0,-109 0,-277 167.0781,-277 167.0781,-109 0,-109"/>
<text text-anchor="middle" x="83.5391" y="-260.2" font-family="Times,serif" font-size="16.00" fill="#000000">debt_type</text>
<polyline fill="none" stroke="#000000" points="0,-253 167.0781,-253 "/>
<text text-anchor="middle" x="83.5391" y="-236.2" font-family="Times,serif" font-size="16.00" fill="#000000">[parrot::DebtType init]</text>
<polyline fill="none" stroke="#000000" points="0,-229 167.0781,-229 "/>
<text text-anchor="middle" x="83.5391" y="-212.2" font-family="Times,serif" font-size="16.00" fill="#000000">+owner</text>
<polyline fill="none" stroke="#000000" points="0,-205 167.0781,-205 "/>
<text text-anchor="middle" x="83.5391" y="-188.2" font-family="Times,serif" font-size="16.00" fill="#000000">+debt_originator</text>
<polyline fill="none" stroke="#000000" points="0,-181 167.0781,-181 "/>
<text text-anchor="middle" x="83.5391" y="-164.2" font-family="Times,serif" font-size="16.00" fill="#000000">+interests_holder</text>
<polyline fill="none" stroke="#000000" points="0,-157 167.0781,-157 "/>
<text text-anchor="middle" x="83.5391" y="-140.2" font-family="Times,serif" font-size="16.00" fill="#000000">+debt_token</text>
<polyline fill="none" stroke="#000000" points="0,-133 167.0781,-133 "/>
<text text-anchor="middle" x="83.5391" y="-116.2" font-family="Times,serif" font-size="16.00" fill="#000000">PDA = [pubkey, nonce]</text>
</g>
<!-- debt_token -->
<g id="node4" class="node">
<title>debt_token</title>
<polygon fill="none" stroke="#000000" points="221.7471,-84 221.7471,-132 347.958,-132 347.958,-84 221.7471,-84"/>
<text text-anchor="middle" x="284.8525" y="-115.2" font-family="Times,serif" font-size="16.00" fill="#000000">debt_token</text>
<polyline fill="none" stroke="#000000" points="221.7471,-108 347.958,-108 "/>
<text text-anchor="middle" x="284.8525" y="-91.2" font-family="Times,serif" font-size="16.00" fill="#000000">[spl&#45;token::Mint]</text>
</g>
<!-- debt_type&#45;&gt;debt_token -->
<g id="edge4" class="edge">
<title>debt_type:debt_token&#45;&gt;debt_token:f0</title>
<path fill="none" stroke="#000000" d="M167.0781,-145C190.075,-145 194.2354,-126.5369 211.9345,-121.3441"/>
<polygon fill="#000000" stroke="#000000" points="212.4132,-124.8113 221.8525,-120 211.4731,-117.8747 212.4132,-124.8113"/>
<text text-anchor="middle" x="194.4126" y="-142.8" font-family="Times,serif" font-size="14.00" fill="#000000">init</text>
</g>
<!-- debt_originator -->
<g id="node5" class="node">
<title>debt_originator</title>
<polygon fill="none" stroke="#000000" points="399.749,-135 399.749,-231 549.0459,-231 549.0459,-135 399.749,-135"/>
<text text-anchor="middle" x="474.3975" y="-214.2" font-family="Times,serif" font-size="16.00" fill="#000000">debt_originator</text>
<polyline fill="none" stroke="#000000" points="399.749,-207 549.0459,-207 "/>
<text text-anchor="middle" x="474.3975" y="-190.2" font-family="Times,serif" font-size="16.00" fill="#000000">[spl&#45;token::Account]</text>
<polyline fill="none" stroke="#000000" points="399.749,-183 549.0459,-183 "/>
<text text-anchor="middle" x="474.3975" y="-166.2" font-family="Times,serif" font-size="16.00" fill="#000000">+mint</text>
<polyline fill="none" stroke="#000000" points="399.749,-159 549.0459,-159 "/>
<text text-anchor="middle" x="474.3975" y="-142.2" font-family="Times,serif" font-size="16.00" fill="#000000">+owner</text>
</g>
<!-- debt_type&#45;&gt;debt_originator -->
<g id="edge3" class="edge">
<title>debt_type:debt_originator&#45;&gt;debt_originator:f0</title>
<path fill="none" stroke="#000000" d="M167.0781,-193C267.6762,-193 293.9772,-217.3021 389.6415,-218.9159"/>
<polygon fill="#000000" stroke="#000000" points="389.7202,-222.4166 399.749,-219 389.7785,-215.4168 389.7202,-222.4166"/>
<text text-anchor="middle" x="284.8525" y="-218.8" font-family="Times,serif" font-size="14.00" fill="#000000">init</text>
</g>
<!-- debt_type&#45;&gt;debt_originator -->
<g id="edge7" class="edge">
<title>debt_type:pda&#45;&gt;debt_originator:owner</title>
<path fill="none" stroke="#000000" stroke-dasharray="1,5" d="M167.0781,-121C203.4838,-121 188.506,-74.8461 221.7471,-60 272.9648,-37.1252 300.2418,-30.5098 347.958,-60 363.1749,-69.4046 357.0013,-80.5153 365.958,-96 377.5514,-116.043 374.1862,-138.9334 389.7223,-145.2873"/>
<polygon fill="#000000" stroke="#000000" points="389.3025,-148.7662 399.749,-147 390.4811,-141.8661 389.3025,-148.7662"/>
<text text-anchor="middle" x="284.8525" y="-62.8" font-family="Times,serif" font-size="14.00" fill="#000000">unchecked</text>
</g>
<!-- interests_holder -->
<g id="node6" class="node">
<title>interests_holder</title>
<polygon fill="none" stroke="#000000" points="399.749,-44 399.749,-116 549.0459,-116 549.0459,-44 399.749,-44"/>
<text text-anchor="middle" x="474.3975" y="-99.2" font-family="Times,serif" font-size="16.00" fill="#000000">interests_holder</text>
<polyline fill="none" stroke="#000000" points="399.749,-92 549.0459,-92 "/>
<text text-anchor="middle" x="474.3975" y="-75.2" font-family="Times,serif" font-size="16.00" fill="#000000">[spl&#45;token::Account]</text>
<polyline fill="none" stroke="#000000" points="399.749,-68 549.0459,-68 "/>
<text text-anchor="middle" x="474.3975" y="-51.2" font-family="Times,serif" font-size="16.00" fill="#000000">+mint</text>
</g>
<!-- debt_type&#45;&gt;interests_holder -->
<g id="edge2" class="edge">
<title>debt_type:interests_holder&#45;&gt;interests_holder:f0</title>
<path fill="none" stroke="#000000" d="M167.0781,-169C248.4267,-169 272.6242,-171.6986 347.958,-141 370.4713,-131.8258 371.6468,-111.0943 389.4863,-105.445"/>
<polygon fill="#000000" stroke="#000000" points="390.3347,-108.8602 399.749,-104 389.3587,-101.9285 390.3347,-108.8602"/>
<text text-anchor="middle" x="284.8525" y="-171.8" font-family="Times,serif" font-size="14.00" fill="#000000">init</text>
</g>
<!-- owner -->
<g id="node7" class="node">
<title>owner</title>
<ellipse fill="none" stroke="#000000" cx="284.8525" cy="-269" rx="37.611" ry="18"/>
<text text-anchor="middle" x="284.8525" y="-264.2" font-family="Times,serif" font-size="16.00" fill="#000000">owner</text>
</g>
<!-- debt_type&#45;&gt;owner -->
<g id="edge1" class="edge">
<title>debt_type:owner&#45;&gt;owner</title>
<path fill="none" stroke="#000000" d="M167.0781,-217C177.7818,-217 175.8781,-227.5294 185.0781,-233 202.5732,-243.403 223.5606,-251.5338 241.7633,-257.4153"/>
<polygon fill="#000000" stroke="#000000" points="240.9615,-260.831 251.5496,-260.4514 243.0358,-254.1454 240.9615,-260.831"/>
<text text-anchor="middle" x="194.4126" y="-244.8" font-family="Times,serif" font-size="14.00" fill="#000000">init</text>
</g>
<!-- debt_token&#45;&gt;debt_originator -->
<g id="edge5" class="edge">
<title>debt_token:f0&#45;&gt;debt_originator:mint</title>
<path fill="none" stroke="#000000" d="M347.8525,-120C361.5715,-120 356.3991,-135.1595 365.958,-145 376.3763,-155.7252 379.5939,-165.7128 389.7974,-169.4491"/>
<polygon fill="#000000" stroke="#000000" points="389.3293,-172.9183 399.749,-171 390.4073,-166.0018 389.3293,-172.9183"/>
<text text-anchor="middle" x="373.8535" y="-166.8" font-family="Times,serif" font-size="14.00" fill="#000000">==</text>
</g>
<!-- debt_token&#45;&gt;interests_holder -->
<g id="edge6" class="edge">
<title>debt_token:f0&#45;&gt;interests_holder:mint</title>
<path fill="none" stroke="#000000" d="M347.8525,-120C368.1798,-120 352.8575,-93.5426 365.958,-78 374.9811,-67.2949 379.5921,-59.8888 389.7229,-57.1609"/>
<polygon fill="#000000" stroke="#000000" points="390.218,-60.627 399.749,-56 389.4128,-53.6735 390.218,-60.627"/>
<text text-anchor="middle" x="373.8535" y="-80.8" font-family="Times,serif" font-size="14.00" fill="#000000">==</text>
</g>
</g>
</svg>
