<?xml version="1.0" encoding="UTF-8" standalone="no"?>
<!DOCTYPE svg PUBLIC "-//W3C//DTD SVG 1.1//EN"
 "http://www.w3.org/Graphics/SVG/1.1/DTD/svg11.dtd">
<!-- Generated by graphviz version 2.40.1 (20161225.0304)
 -->
<!-- Title: parrot_accounts Pages: 1 -->
<svg width="1102pt" height="298pt"
 viewBox="0.00 0.00 1102.35 297.50" xmlns="http://www.w3.org/2000/svg" xmlns:xlink="http://www.w3.org/1999/xlink">
<g id="graph0" class="graph" transform="scale(1 1) rotate(0) translate(4 293.5)">
<title>parrot_accounts</title>
<polygon fill="#ffffff" stroke="transparent" points="-4,4 -4,-293.5 1098.3451,-293.5 1098.3451,4 -4,4"/>
<!-- sys::clock -->
<g id="node1" class="node">
<title>sys::clock</title>
<ellipse fill="none" stroke="#000000" cx="128.808" cy="-126" rx="53.8213" ry="18"/>
<text text-anchor="middle" x="128.808" y="-121.2" font-family="Times,serif" font-size="16.00" fill="#000000">sys::clock</text>
</g>
<!-- spl::token::PROGRAM_ID -->
<g id="node2" class="node">
<title>spl::token::PROGRAM_ID</title>
<ellipse fill="none" stroke="#000000" cx="128.808" cy="-180" rx="128.6163" ry="18"/>
<text text-anchor="middle" x="128.808" y="-175.2" font-family="Times,serif" font-size="16.00" fill="#000000">spl::token::PROGRAM_ID</text>
</g>
<!-- vault -->
<g id="node3" class="node">
<title>vault</title>
<polygon fill="none" stroke="#000000" points="60.601,-217 60.601,-289 197.015,-289 197.015,-217 60.601,-217"/>
<text text-anchor="middle" x="128.808" y="-272.2" font-family="Times,serif" font-size="16.00" fill="#000000">vault</text>
<polyline fill="none" stroke="#000000" points="60.601,-265 197.015,-265 "/>
<text text-anchor="middle" x="128.808" y="-248.2" font-family="Times,serif" font-size="16.00" fill="#000000">[parrot::Vault mut]</text>
<polyline fill="none" stroke="#000000" points="60.601,-241 197.015,-241 "/>
<text text-anchor="middle" x="128.808" y="-224.2" font-family="Times,serif" font-size="16.00" fill="#000000">+vault_type</text>
</g>
<!-- vault_type -->
<g id="node4" class="node">
<title>vault_type</title>
<polygon fill="none" stroke="#000000" points="339.492,-169 339.492,-241 507.6638,-241 507.6638,-169 339.492,-169"/>
<text text-anchor="middle" x="423.5779" y="-224.2" font-family="Times,serif" font-size="16.00" fill="#000000">vault_type</text>
<polyline fill="none" stroke="#000000" points="339.492,-217 507.6638,-217 "/>
<text text-anchor="middle" x="423.5779" y="-200.2" font-family="Times,serif" font-size="16.00" fill="#000000">[parrot::VaultType mut]</text>
<polyline fill="none" stroke="#000000" points="339.492,-193 507.6638,-193 "/>
<text text-anchor="middle" x="423.5779" y="-176.2" font-family="Times,serif" font-size="16.00" fill="#000000">+debt_type</text>
</g>
<!-- vault&#45;&gt;vault_type -->
<g id="edge4" class="edge">
<title>vault:vault_type&#45;&gt;vault_type:f0</title>
<path fill="none" stroke="#000000" d="M196.808,-229C256.6673,-229 274.1749,-229 329.2365,-229"/>
<polygon fill="#000000" stroke="#000000" points="329.5779,-232.5001 339.5779,-229 329.5779,-225.5001 329.5779,-232.5001"/>
<text text-anchor="middle" x="298.554" y="-231.8" font-family="Times,serif" font-size="14.00" fill="#000000">has_one</text>
</g>
<!-- debt_type -->
<g id="node5" class="node">
<title>debt_type</title>
<polygon fill="none" stroke="#000000" points="610.3289,-121 610.3289,-193 746.9383,-193 746.9383,-121 610.3289,-121"/>
<text text-anchor="middle" x="678.6336" y="-176.2" font-family="Times,serif" font-size="16.00" fill="#000000">debt_type</text>
<polyline fill="none" stroke="#000000" points="610.3289,-169 746.9383,-169 "/>
<text text-anchor="middle" x="678.6336" y="-152.2" font-family="Times,serif" font-size="16.00" fill="#000000">[parrot::DebtType]</text>
<polyline fill="none" stroke="#000000" points="610.3289,-145 746.9383,-145 "/>
<text text-anchor="middle" x="678.6336" y="-128.2" font-family="Times,serif" font-size="16.00" fill="#000000">+debt_token</text>
</g>
<!-- vault_type&#45;&gt;debt_type -->
<g id="edge5" class="edge">
<title>vault_type:debt_type&#45;&gt;debt_type:f0</title>
<path fill="none" stroke="#000000" d="M507.5779,-181C549.8021,-181 562.8322,-181 600.4948,-181"/>
<polygon fill="#000000" stroke="#000000" points="600.6336,-184.5001 610.6336,-181 600.6335,-177.5001 600.6336,-184.5001"/>
<text text-anchor="middle" x="548.6018" y="-183.8" font-family="Times,serif" font-size="14.00" fill="#000000">has_one</text>
</g>
<!-- debt_token -->
<g id="node6" class="node">
<title>debt_token</title>
<polygon fill="none" stroke="#000000" points="893.8262,-70 893.8262,-118 1020.0372,-118 1020.0372,-70 893.8262,-70"/>
<text text-anchor="middle" x="956.9317" y="-101.2" font-family="Times,serif" font-size="16.00" fill="#000000">debt_token</text>
<polyline fill="none" stroke="#000000" points="893.8262,-94 1020.0372,-94 "/>
<text text-anchor="middle" x="956.9317" y="-77.2" font-family="Times,serif" font-size="16.00" fill="#000000">[spl&#45;token::Mint]</text>
</g>
<!-- debt_type&#45;&gt;debt_token -->
<g id="edge1" class="edge">
<title>debt_type:debt_token&#45;&gt;debt_token:f0</title>
<path fill="none" stroke="#000000" d="M746.6336,-133C809.6803,-133 825.7334,-108.7726 883.8238,-106.2173"/>
<polygon fill="#000000" stroke="#000000" points="884.0093,-109.7143 893.9317,-106 883.8587,-102.7159 884.0093,-109.7143"/>
<text text-anchor="middle" x="793.6228" y="-131.8" font-family="Times,serif" font-size="14.00" fill="#000000">==</text>
</g>
<!-- debt_from -->
<g id="node7" class="node">
<title>debt_from</title>
<polygon fill="none" stroke="#000000" points="589.5398,-6 589.5398,-102 767.7273,-102 767.7273,-6 589.5398,-6"/>
<text text-anchor="middle" x="678.6336" y="-85.2" font-family="Times,serif" font-size="16.00" fill="#000000">debt_from</text>
<polyline fill="none" stroke="#000000" points="589.5398,-78 767.7273,-78 "/>
<text text-anchor="middle" x="678.6336" y="-61.2" font-family="Times,serif" font-size="16.00" fill="#000000">[spl&#45;token::Account mut]</text>
<polyline fill="none" stroke="#000000" points="589.5398,-54 767.7273,-54 "/>
<text text-anchor="middle" x="678.6336" y="-37.2" font-family="Times,serif" font-size="16.00" fill="#000000">+mint</text>
<polyline fill="none" stroke="#000000" points="589.5398,-30 767.7273,-30 "/>
<text text-anchor="middle" x="678.6336" y="-13.2" font-family="Times,serif" font-size="16.00" fill="#000000">+owner</text>
</g>
<!-- debt_from&#45;&gt;debt_token -->
<g id="edge3" class="edge">
<title>debt_from:mint&#45;&gt;debt_token:f0</title>
<path fill="none" stroke="#000000" stroke-dasharray="1,5" d="M767.6336,-42C826.9974,-42 830.7531,-98.9553 883.8175,-105.4073"/>
<polygon fill="#000000" stroke="#000000" points="883.744,-108.9089 893.9317,-106 884.1536,-101.9209 883.744,-108.9089"/>
<text text-anchor="middle" x="793.6228" y="-51.8" font-family="Times,serif" font-size="14.00" fill="#000000">==</text>
</g>
<!-- debt_from_authority -->
<g id="node8" class="node">
<title>debt_from_authority</title>
<ellipse fill="none" stroke="#000000" cx="956.9317" cy="-18" rx="137.3268" ry="18"/>
<text text-anchor="middle" x="956.9317" y="-13.2" font-family="Times,serif" font-size="16.00" fill="#000000">debt_from_authority (signed)</text>
</g>
<!-- debt_from&#45;&gt;debt_from_authority -->
<g id="edge2" class="edge">
<title>debt_from:owner&#45;&gt;debt_from_authority</title>
<path fill="none" stroke="#000000" stroke-dasharray="1,5" d="M767.6336,-18C781.1208,-18 795.1485,-18 809.1968,-18"/>
<polygon fill="#000000" stroke="#000000" points="809.4224,-21.5001 819.4224,-18 809.4223,-14.5001 809.4224,-21.5001"/>
<text text-anchor="middle" x="793.6228" y="-20.8" font-family="Times,serif" font-size="14.00" fill="#000000">==</text>
</g>
</g>
</svg>
