<?xml version="1.0" encoding="UTF-8" standalone="no"?>
<!DOCTYPE svg PUBLIC "-//W3C//DTD SVG 1.1//EN"
 "http://www.w3.org/Graphics/SVG/1.1/DTD/svg11.dtd">
<!-- Generated by graphviz version 2.40.1 (20161225.0304)
 -->
<!-- Title: parrot_accounts Pages: 1 -->
<svg width="1291pt" height="387pt"
 viewBox="0.00 0.00 1290.75 386.50" xmlns="http://www.w3.org/2000/svg" xmlns:xlink="http://www.w3.org/1999/xlink">
<g id="graph0" class="graph" transform="scale(1 1) rotate(0) translate(4 382.5)">
<title>parrot_accounts</title>
<polygon fill="#ffffff" stroke="transparent" points="-4,4 -4,-382.5 1286.7455,-382.5 1286.7455,4 -4,4"/>
<!-- sys::clock -->
<g id="node1" class="node">
<title>sys::clock</title>
<ellipse fill="none" stroke="#000000" cx="128.808" cy="-215" rx="53.8213" ry="18"/>
<text text-anchor="middle" x="128.808" y="-210.2" font-family="Times,serif" font-size="16.00" fill="#000000">sys::clock</text>
</g>
<!-- spl::token::PROGRAM_ID -->
<g id="node2" class="node">
<title>spl::token::PROGRAM_ID</title>
<ellipse fill="none" stroke="#000000" cx="128.808" cy="-269" rx="128.6163" ry="18"/>
<text text-anchor="middle" x="128.808" y="-264.2" font-family="Times,serif" font-size="16.00" fill="#000000">spl::token::PROGRAM_ID</text>
</g>
<!-- vault -->
<g id="node3" class="node">
<title>vault</title>
<polygon fill="none" stroke="#000000" points="60.601,-306 60.601,-378 197.015,-378 197.015,-306 60.601,-306"/>
<text text-anchor="middle" x="128.808" y="-361.2" font-family="Times,serif" font-size="16.00" fill="#000000">vault</text>
<polyline fill="none" stroke="#000000" points="60.601,-354 197.015,-354 "/>
<text text-anchor="middle" x="128.808" y="-337.2" font-family="Times,serif" font-size="16.00" fill="#000000">[parrot::Vault mut]</text>
<polyline fill="none" stroke="#000000" points="60.601,-330 197.015,-330 "/>
<text text-anchor="middle" x="128.808" y="-313.2" font-family="Times,serif" font-size="16.00" fill="#000000">+vault_type</text>
</g>
<!-- vault_type -->
<g id="node4" class="node">
<title>vault_type</title>
<polygon fill="none" stroke="#000000" points="339.492,-258 339.492,-330 507.6638,-330 507.6638,-258 339.492,-258"/>
<text text-anchor="middle" x="423.5779" y="-313.2" font-family="Times,serif" font-size="16.00" fill="#000000">vault_type</text>
<polyline fill="none" stroke="#000000" points="339.492,-306 507.6638,-306 "/>
<text text-anchor="middle" x="423.5779" y="-289.2" font-family="Times,serif" font-size="16.00" fill="#000000">[parrot::VaultType mut]</text>
<polyline fill="none" stroke="#000000" points="339.492,-282 507.6638,-282 "/>
<text text-anchor="middle" x="423.5779" y="-265.2" font-family="Times,serif" font-size="16.00" fill="#000000">+debt_type</text>
</g>
<!-- vault&#45;&gt;vault_type -->
<g id="edge6" class="edge">
<title>vault:vault_type&#45;&gt;vault_type:f0</title>
<path fill="none" stroke="#000000" d="M196.808,-318C256.6673,-318 274.1749,-318 329.2365,-318"/>
<polygon fill="#000000" stroke="#000000" points="329.5779,-321.5001 339.5779,-318 329.5779,-314.5001 329.5779,-321.5001"/>
<text text-anchor="middle" x="298.554" y="-320.8" font-family="Times,serif" font-size="14.00" fill="#000000">has_one</text>
</g>
<!-- debt_type -->
<g id="node5" class="node">
<title>debt_type</title>
<polygon fill="none" stroke="#000000" points="589.5398,-186 589.5398,-282 726.1492,-282 726.1492,-186 589.5398,-186"/>
<text text-anchor="middle" x="657.8445" y="-265.2" font-family="Times,serif" font-size="16.00" fill="#000000">debt_type</text>
<polyline fill="none" stroke="#000000" points="589.5398,-258 726.1492,-258 "/>
<text text-anchor="middle" x="657.8445" y="-241.2" font-family="Times,serif" font-size="16.00" fill="#000000">[parrot::DebtType]</text>
<polyline fill="none" stroke="#000000" points="589.5398,-234 726.1492,-234 "/>
<text text-anchor="middle" x="657.8445" y="-217.2" font-family="Times,serif" font-size="16.00" fill="#000000">+debt_token</text>
<polyline fill="none" stroke="#000000" points="589.5398,-210 726.1492,-210 "/>
<text text-anchor="middle" x="657.8445" y="-193.2" font-family="Times,serif" font-size="16.00" fill="#000000">+debt_originator</text>
</g>
<!-- vault_type&#45;&gt;debt_type -->
<g id="edge7" class="edge">
<title>vault_type:debt_type&#45;&gt;debt_type:f0</title>
<path fill="none" stroke="#000000" d="M507.5779,-270C540.4274,-270 551.142,-270 579.4954,-270"/>
<polygon fill="#000000" stroke="#000000" points="579.8445,-273.5001 589.8445,-270 579.8445,-266.5001 579.8445,-273.5001"/>
<text text-anchor="middle" x="548.6018" y="-272.8" font-family="Times,serif" font-size="14.00" fill="#000000">has_one</text>
</g>
<!-- debt_token -->
<g id="node6" class="node">
<title>debt_token</title>
<polygon fill="none" stroke="#000000" points="1082.2266,-97 1082.2266,-145 1208.4376,-145 1208.4376,-97 1082.2266,-97"/>
<text text-anchor="middle" x="1145.3321" y="-128.2" font-family="Times,serif" font-size="16.00" fill="#000000">debt_token</text>
<polyline fill="none" stroke="#000000" points="1082.2266,-121 1208.4376,-121 "/>
<text text-anchor="middle" x="1145.3321" y="-104.2" font-family="Times,serif" font-size="16.00" fill="#000000">[spl&#45;token::Mint]</text>
</g>
<!-- debt_type&#45;&gt;debt_token -->
<g id="edge1" class="edge">
<title>debt_type:debt_token&#45;&gt;debt_token:f0</title>
<path fill="none" stroke="#000000" d="M725.8445,-222C828.5404,-222 857.8492,-232.7954 956.1277,-203 1014.0332,-185.4446 1017.9191,-138.7164 1072.0213,-133.4793"/>
<polygon fill="#000000" stroke="#000000" points="1072.5054,-136.9607 1082.3321,-133 1072.1803,-129.9682 1072.5054,-136.9607"/>
<text text-anchor="middle" x="867.034" y="-225.8" font-family="Times,serif" font-size="14.00" fill="#000000">==</text>
</g>
<!-- debt_originator -->
<g id="node9" class="node">
<title>debt_originator</title>
<polygon fill="none" stroke="#000000" points="777.9402,-121 777.9402,-193 956.1277,-193 956.1277,-121 777.9402,-121"/>
<text text-anchor="middle" x="867.034" y="-176.2" font-family="Times,serif" font-size="16.00" fill="#000000">debt_originator</text>
<polyline fill="none" stroke="#000000" points="777.9402,-169 956.1277,-169 "/>
<text text-anchor="middle" x="867.034" y="-152.2" font-family="Times,serif" font-size="16.00" fill="#000000">[spl&#45;token::Account mut]</text>
<polyline fill="none" stroke="#000000" points="777.9402,-145 956.1277,-145 "/>
<text text-anchor="middle" x="867.034" y="-128.2" font-family="Times,serif" font-size="16.00" fill="#000000">+mint</text>
</g>
<!-- debt_type&#45;&gt;debt_originator -->
<g id="edge2" class="edge">
<title>debt_type:debt_originator&#45;&gt;debt_originator:f0</title>
<path fill="none" stroke="#000000" d="M725.8445,-198C746.4277,-198 752.0641,-185.8975 767.9764,-182.1154"/>
<polygon fill="#000000" stroke="#000000" points="768.4807,-185.581 778.034,-181 767.7091,-178.6237 768.4807,-185.581"/>
<text text-anchor="middle" x="752.0447" y="-195.8" font-family="Times,serif" font-size="14.00" fill="#000000">==</text>
</g>
<!-- debt_from -->
<g id="node7" class="node">
<title>debt_from</title>
<polygon fill="none" stroke="#000000" points="777.9402,-6 777.9402,-102 956.1277,-102 956.1277,-6 777.9402,-6"/>
<text text-anchor="middle" x="867.034" y="-85.2" font-family="Times,serif" font-size="16.00" fill="#000000">debt_from</text>
<polyline fill="none" stroke="#000000" points="777.9402,-78 956.1277,-78 "/>
<text text-anchor="middle" x="867.034" y="-61.2" font-family="Times,serif" font-size="16.00" fill="#000000">[spl&#45;token::Account mut]</text>
<polyline fill="none" stroke="#000000" points="777.9402,-54 956.1277,-54 "/>
<text text-anchor="middle" x="867.034" y="-37.2" font-family="Times,serif" font-size="16.00" fill="#000000">+mint</text>
<polyline fill="none" stroke="#000000" points="777.9402,-30 956.1277,-30 "/>
<text text-anchor="middle" x="867.034" y="-13.2" font-family="Times,serif" font-size="16.00" fill="#000000">+owner</text>
</g>
<!-- debt_from&#45;&gt;debt_token -->
<g id="edge4" class="edge">
<title>debt_from:mint&#45;&gt;debt_token:f0</title>
<path fill="none" stroke="#000000" stroke-dasharray="1,5" d="M956.034,-42C1021.5709,-42 1014.1941,-123.6554 1072.0408,-132.2675"/>
<polygon fill="#000000" stroke="#000000" points="1072.1088,-135.7811 1082.3321,-133 1072.6058,-128.7988 1072.1088,-135.7811"/>
<text text-anchor="middle" x="982.0232" y="-54.8" font-family="Times,serif" font-size="14.00" fill="#000000">==</text>
</g>
<!-- debt_from_authority -->
<g id="node8" class="node">
<title>debt_from_authority</title>
<ellipse fill="none" stroke="#000000" cx="1145.3321" cy="-18" rx="137.3268" ry="18"/>
<text text-anchor="middle" x="1145.3321" y="-13.2" font-family="Times,serif" font-size="16.00" fill="#000000">debt_from_authority (signed)</text>
</g>
<!-- debt_from&#45;&gt;debt_from_authority -->
<g id="edge3" class="edge">
<title>debt_from:owner&#45;&gt;debt_from_authority</title>
<path fill="none" stroke="#000000" stroke-dasharray="1,5" d="M956.034,-18C969.5211,-18 983.5489,-18 997.5972,-18"/>
<polygon fill="#000000" stroke="#000000" points="997.8228,-21.5001 1007.8228,-18 997.8227,-14.5001 997.8228,-21.5001"/>
<text text-anchor="middle" x="982.0232" y="-20.8" font-family="Times,serif" font-size="14.00" fill="#000000">==</text>
</g>
<!-- debt_originator&#45;&gt;debt_token -->
<g id="edge5" class="edge">
<title>debt_originator:mint&#45;&gt;debt_token:f0</title>
<path fill="none" stroke="#000000" stroke-dasharray="1,5" d="M956.034,-133C1008.6582,-133 1024.281,-133 1072.28,-133"/>
<polygon fill="#000000" stroke="#000000" points="1072.3321,-136.5001 1082.3321,-133 1072.3321,-129.5001 1072.3321,-136.5001"/>
<text text-anchor="middle" x="982.0232" y="-135.8" font-family="Times,serif" font-size="14.00" fill="#000000">==</text>
</g>
</g>
</svg>
