<?xml version="1.0" encoding="UTF-8" standalone="no"?>
<!DOCTYPE svg PUBLIC "-//W3C//DTD SVG 1.1//EN"
 "http://www.w3.org/Graphics/SVG/1.1/DTD/svg11.dtd">
<!-- Generated by graphviz version 2.40.1 (20161225.0304)
 -->
<!-- Title: parrot_accounts Pages: 1 -->
<svg width="894pt" height="349pt"
 viewBox="0.00 0.00 893.96 348.50" xmlns="http://www.w3.org/2000/svg" xmlns:xlink="http://www.w3.org/1999/xlink">
<g id="graph0" class="graph" transform="scale(1 1) rotate(0) translate(4 344.5)">
<title>parrot_accounts</title>
<polygon fill="#ffffff" stroke="transparent" points="-4,4 -4,-344.5 889.9612,-344.5 889.9612,4 -4,4"/>
<!-- sys::clock -->
<g id="node1" class="node">
<title>sys::clock</title>
<ellipse fill="none" stroke="#000000" cx="128.808" cy="-18" rx="53.8213" ry="18"/>
<text text-anchor="middle" x="128.808" y="-13.2" font-family="Times,serif" font-size="16.00" fill="#000000">sys::clock</text>
</g>
<!-- spl::token::PROGRAM_ID -->
<g id="node2" class="node">
<title>spl::token::PROGRAM_ID</title>
<ellipse fill="none" stroke="#000000" cx="128.808" cy="-72" rx="128.6163" ry="18"/>
<text text-anchor="middle" x="128.808" y="-67.2" font-family="Times,serif" font-size="16.00" fill="#000000">spl::token::PROGRAM_ID</text>
</g>
<!-- vault -->
<g id="node3" class="node">
<title>vault</title>
<polygon fill="none" stroke="#000000" points="400.0586,-244 400.0586,-340 536.4727,-340 536.4727,-244 400.0586,-244"/>
<text text-anchor="middle" x="468.2657" y="-323.2" font-family="Times,serif" font-size="16.00" fill="#000000">vault</text>
<polyline fill="none" stroke="#000000" points="400.0586,-316 536.4727,-316 "/>
<text text-anchor="middle" x="468.2657" y="-299.2" font-family="Times,serif" font-size="16.00" fill="#000000">[parrot::Vault mut]</text>
<polyline fill="none" stroke="#000000" points="400.0586,-292 536.4727,-292 "/>
<text text-anchor="middle" x="468.2657" y="-275.2" font-family="Times,serif" font-size="16.00" fill="#000000">+vault_type</text>
<polyline fill="none" stroke="#000000" points="400.0586,-268 536.4727,-268 "/>
<text text-anchor="middle" x="468.2657" y="-251.2" font-family="Times,serif" font-size="16.00" fill="#000000">+owner</text>
</g>
<!-- vault_type -->
<g id="node4" class="node">
<title>vault_type</title>
<polygon fill="none" stroke="#000000" points="709.0003,-196 709.0003,-292 885.9612,-292 885.9612,-196 709.0003,-196"/>
<text text-anchor="middle" x="797.4808" y="-275.2" font-family="Times,serif" font-size="16.00" fill="#000000">vault_type</text>
<polyline fill="none" stroke="#000000" points="709.0003,-268 885.9612,-268 "/>
<text text-anchor="middle" x="797.4808" y="-251.2" font-family="Times,serif" font-size="16.00" fill="#000000">[parrot::VaultType mut]</text>
<polyline fill="none" stroke="#000000" points="709.0003,-244 885.9612,-244 "/>
<text text-anchor="middle" x="797.4808" y="-227.2" font-family="Times,serif" font-size="16.00" fill="#000000">+collateral_token</text>
<polyline fill="none" stroke="#000000" points="709.0003,-220 885.9612,-220 "/>
<text text-anchor="middle" x="797.4808" y="-203.2" font-family="Times,serif" font-size="16.00" fill="#000000">+collateral_token_holder</text>
</g>
<!-- vault&#45;&gt;vault_type -->
<g id="edge4" class="edge">
<title>vault:vault_type&#45;&gt;vault_type:f0</title>
<path fill="none" stroke="#000000" d="M536.2657,-280C609.7919,-280 630.6506,-280 699.445,-280"/>
<polygon fill="#000000" stroke="#000000" points="699.4808,-283.5001 709.4808,-280 699.4807,-276.5001 699.4808,-283.5001"/>
<text text-anchor="middle" x="668.0623" y="-282.8" font-family="Times,serif" font-size="14.00" fill="#000000">has_one</text>
</g>
<!-- collateral_from -->
<g id="node5" class="node">
<title>collateral_from</title>
<polygon fill="none" stroke="#000000" points="39.7142,-109 39.7142,-205 217.9017,-205 217.9017,-109 39.7142,-109"/>
<text text-anchor="middle" x="128.808" y="-188.2" font-family="Times,serif" font-size="16.00" fill="#000000">collateral_from</text>
<polyline fill="none" stroke="#000000" points="39.7142,-181 217.9017,-181 "/>
<text text-anchor="middle" x="128.808" y="-164.2" font-family="Times,serif" font-size="16.00" fill="#000000">[spl&#45;token::Account mut]</text>
<polyline fill="none" stroke="#000000" points="39.7142,-157 217.9017,-157 "/>
<text text-anchor="middle" x="128.808" y="-140.2" font-family="Times,serif" font-size="16.00" fill="#000000">+mint</text>
<polyline fill="none" stroke="#000000" points="39.7142,-133 217.9017,-133 "/>
<text text-anchor="middle" x="128.808" y="-116.2" font-family="Times,serif" font-size="16.00" fill="#000000">+owner</text>
</g>
<!-- collateral_from_authority -->
<g id="node6" class="node">
<title>collateral_from_authority</title>
<ellipse fill="none" stroke="#000000" cx="468.2657" cy="-111" rx="158.7174" ry="18"/>
<text text-anchor="middle" x="468.2657" y="-106.2" font-family="Times,serif" font-size="16.00" fill="#000000">collateral_from_authority (signed)</text>
</g>
<!-- collateral_from&#45;&gt;collateral_from_authority -->
<g id="edge1" class="edge">
<title>collateral_from:owner&#45;&gt;collateral_from_authority</title>
<path fill="none" stroke="#000000" stroke-dasharray="1,5" d="M217.808,-121C249.0254,-121 282.4141,-120.2148 314.3059,-119.0844"/>
<polygon fill="#000000" stroke="#000000" points="314.7385,-122.5709 324.6031,-118.7058 314.4812,-115.5757 314.7385,-122.5709"/>
<text text-anchor="middle" x="283.5115" y="-123.8" font-family="Times,serif" font-size="14.00" fill="#000000">==</text>
</g>
<!-- collateral_to -->
<g id="node7" class="node">
<title>collateral_to</title>
<polygon fill="none" stroke="#000000" points="379.1719,-148 379.1719,-220 557.3594,-220 557.3594,-148 379.1719,-148"/>
<text text-anchor="middle" x="468.2657" y="-203.2" font-family="Times,serif" font-size="16.00" fill="#000000">collateral_to</text>
<polyline fill="none" stroke="#000000" points="379.1719,-196 557.3594,-196 "/>
<text text-anchor="middle" x="468.2657" y="-179.2" font-family="Times,serif" font-size="16.00" fill="#000000">[spl&#45;token::Account mut]</text>
<polyline fill="none" stroke="#000000" points="379.1719,-172 557.3594,-172 "/>
<text text-anchor="middle" x="468.2657" y="-155.2" font-family="Times,serif" font-size="16.00" fill="#000000">+mint</text>
</g>
<!-- collateral_from&#45;&gt;collateral_to -->
<g id="edge2" class="edge">
<title>collateral_from:mint&#45;&gt;collateral_to:mint</title>
<path fill="none" stroke="#000000" stroke-dasharray="1,5" d="M217.808,-145C286.357,-145 305.3756,-158.5709 369.0877,-159.8962"/>
<polygon fill="#000000" stroke="#000000" points="369.2305,-163.3977 379.2657,-160 369.3019,-156.3981 369.2305,-163.3977"/>
<text text-anchor="middle" x="283.5115" y="-154.8" font-family="Times,serif" font-size="14.00" fill="#000000">==</text>
</g>
<!-- collateral_to&#45;&gt;vault_type -->
<g id="edge3" class="edge">
<title>collateral_to:f0&#45;&gt;vault_type:collateral_token_holder</title>
<path fill="none" stroke="#000000" d="M557.2657,-208C621.3493,-208 639.9047,-208 699.1866,-208"/>
<polygon fill="#000000" stroke="#000000" points="699.4808,-211.5001 709.4808,-208 699.4807,-204.5001 699.4808,-211.5001"/>
<text text-anchor="middle" x="668.0623" y="-210.8" font-family="Times,serif" font-size="14.00" fill="#000000">==</text>
</g>
</g>
</svg>
