<?xml version="1.0" encoding="UTF-8" standalone="no"?>
<!DOCTYPE svg PUBLIC "-//W3C//DTD SVG 1.1//EN"
 "http://www.w3.org/Graphics/SVG/1.1/DTD/svg11.dtd">
<!-- Generated by graphviz version 2.40.1 (20161225.0304)
 -->
<!-- Title: parrot_accounts Pages: 1 -->
<svg width="1066pt" height="445pt"
 viewBox="0.00 0.00 1065.81 444.50" xmlns="http://www.w3.org/2000/svg" xmlns:xlink="http://www.w3.org/1999/xlink">
<g id="graph0" class="graph" transform="scale(1 1) rotate(0) translate(4 440.5)">
<title>parrot_accounts</title>
<polygon fill="#ffffff" stroke="transparent" points="-4,4 -4,-440.5 1061.8112,-440.5 1061.8112,4 -4,4"/>
<!-- token_program -->
<g id="node1" class="node">
<title>token_program</title>
<ellipse fill="none" stroke="#000000" cx="76.3058" cy="-18" rx="76.1121" ry="18"/>
<text text-anchor="middle" x="76.3058" y="-13.2" font-family="Times,serif" font-size="16.00" fill="#000000">token_program</text>
</g>
<!-- clock -->
<g id="node2" class="node">
<title>clock</title>
<ellipse fill="none" stroke="#000000" cx="76.3058" cy="-72" rx="33.952" ry="18"/>
<text text-anchor="middle" x="76.3058" y="-67.2" font-family="Times,serif" font-size="16.00" fill="#000000">clock</text>
</g>
<!-- debt_type -->
<g id="node3" class="node">
<title>debt_type</title>
<polygon fill="none" stroke="#000000" points="604.2383,-273 604.2383,-345 740.8477,-345 740.8477,-273 604.2383,-273"/>
<text text-anchor="middle" x="672.543" y="-328.2" font-family="Times,serif" font-size="16.00" fill="#000000">debt_type</text>
<polyline fill="none" stroke="#000000" points="604.2383,-321 740.8477,-321 "/>
<text text-anchor="middle" x="672.543" y="-304.2" font-family="Times,serif" font-size="16.00" fill="#000000">[parrot::DebtType]</text>
<polyline fill="none" stroke="#000000" points="604.2383,-297 740.8477,-297 "/>
<text text-anchor="middle" x="672.543" y="-280.2" font-family="Times,serif" font-size="16.00" fill="#000000">+debt_token</text>
</g>
<!-- debt_token -->
<g id="node6" class="node">
<title>debt_token</title>
<polygon fill="none" stroke="#000000" points="905.612,-284 905.612,-356 1031.8229,-356 1031.8229,-284 905.612,-284"/>
<text text-anchor="middle" x="968.7175" y="-339.2" font-family="Times,serif" font-size="16.00" fill="#000000">debt_token</text>
<polyline fill="none" stroke="#000000" points="905.612,-332 1031.8229,-332 "/>
<text text-anchor="middle" x="968.7175" y="-315.2" font-family="Times,serif" font-size="16.00" fill="#000000">[spl&#45;token::Mint]</text>
<polyline fill="none" stroke="#000000" points="905.612,-308 1031.8229,-308 "/>
<text text-anchor="middle" x="968.7175" y="-291.2" font-family="Times,serif" font-size="16.00" fill="#000000">mint_authority</text>
</g>
<!-- debt_type&#45;&gt;debt_token -->
<g id="edge1" class="edge">
<title>debt_type:debt_token&#45;&gt;debt_token:f0</title>
<path fill="none" stroke="#000000" d="M740.543,-285C814.9948,-285 826.7927,-338.8183 895.6154,-343.6535"/>
<polygon fill="#000000" stroke="#000000" points="895.6033,-347.1551 905.7175,-344 895.8433,-340.1592 895.6033,-347.1551"/>
<text text-anchor="middle" x="853.7282" y="-337.8" font-family="Times,serif" font-size="14.00" fill="#000000">==</text>
</g>
<!-- vault_type -->
<g id="node4" class="node">
<title>vault_type</title>
<polygon fill="none" stroke="#000000" points="246.452,-113 246.452,-281 423.413,-281 423.413,-113 246.452,-113"/>
<text text-anchor="middle" x="334.9325" y="-264.2" font-family="Times,serif" font-size="16.00" fill="#000000">vault_type</text>
<polyline fill="none" stroke="#000000" points="246.452,-257 423.413,-257 "/>
<text text-anchor="middle" x="334.9325" y="-240.2" font-family="Times,serif" font-size="16.00" fill="#000000">[parrot::VaultType mut]</text>
<polyline fill="none" stroke="#000000" points="246.452,-233 423.413,-233 "/>
<text text-anchor="middle" x="334.9325" y="-216.2" font-family="Times,serif" font-size="16.00" fill="#000000">+debt_type</text>
<polyline fill="none" stroke="#000000" points="246.452,-209 423.413,-209 "/>
<text text-anchor="middle" x="334.9325" y="-192.2" font-family="Times,serif" font-size="16.00" fill="#000000">+collateral_token</text>
<polyline fill="none" stroke="#000000" points="246.452,-185 423.413,-185 "/>
<text text-anchor="middle" x="334.9325" y="-168.2" font-family="Times,serif" font-size="16.00" fill="#000000">+collateral_token_holder</text>
<polyline fill="none" stroke="#000000" points="246.452,-161 423.413,-161 "/>
<text text-anchor="middle" x="334.9325" y="-144.2" font-family="Times,serif" font-size="16.00" fill="#000000">+price_oracle</text>
<polyline fill="none" stroke="#000000" points="246.452,-137 423.413,-137 "/>
<text text-anchor="middle" x="334.9325" y="-120.2" font-family="Times,serif" font-size="16.00" fill="#000000">seeds = [pubkey, nonce]</text>
</g>
<!-- vault_type&#45;&gt;debt_type -->
<g id="edge2" class="edge">
<title>vault_type:debt_type&#45;&gt;debt_type:f0</title>
<path fill="none" stroke="#000000" d="M422.9325,-221C467.1992,-221 545.7758,-318.6189 594.5993,-331.5839"/>
<polygon fill="#000000" stroke="#000000" points="594.1494,-335.0551 604.543,-333 595.1364,-328.125 594.1494,-335.0551"/>
<text text-anchor="middle" x="476.3153" y="-265.8" font-family="Times,serif" font-size="14.00" fill="#000000">has_one</text>
</g>
<!-- oracle -->
<g id="node5" class="node">
<title>oracle</title>
<polygon fill="none" stroke="#000000" points="605.8907,-88 605.8907,-136 739.1954,-136 739.1954,-88 605.8907,-88"/>
<text text-anchor="middle" x="672.543" y="-119.2" font-family="Times,serif" font-size="16.00" fill="#000000">oracle</text>
<polyline fill="none" stroke="#000000" points="605.8907,-112 739.1954,-112 "/>
<text text-anchor="middle" x="672.543" y="-95.2" font-family="Times,serif" font-size="16.00" fill="#000000">[flux::Aggregator]</text>
</g>
<!-- vault_type&#45;&gt;oracle -->
<g id="edge4" class="edge">
<title>vault_type:price_oracle&#45;&gt;oracle:f0</title>
<path fill="none" stroke="#000000" d="M422.9325,-149C425.1424,-149 557.7203,-130.3686 595.5777,-125.2741"/>
<polygon fill="#000000" stroke="#000000" points="596.0677,-128.7401 605.543,-124 595.1799,-121.7966 596.0677,-128.7401"/>
<text text-anchor="middle" x="476.3153" y="-146.8" font-family="Times,serif" font-size="14.00" fill="#000000">==</text>
</g>
<!-- collateral_token -->
<g id="node7" class="node">
<title>collateral_token</title>
<polygon fill="none" stroke="#000000" points="609.4375,-206 609.4375,-254 735.6485,-254 735.6485,-206 609.4375,-206"/>
<text text-anchor="middle" x="672.543" y="-237.2" font-family="Times,serif" font-size="16.00" fill="#000000">collateral_token</text>
<polyline fill="none" stroke="#000000" points="609.4375,-230 735.6485,-230 "/>
<text text-anchor="middle" x="672.543" y="-213.2" font-family="Times,serif" font-size="16.00" fill="#000000">[spl&#45;token::Mint]</text>
</g>
<!-- vault_type&#45;&gt;collateral_token -->
<g id="edge3" class="edge">
<title>vault_type:collateral_token&#45;&gt;collateral_token:f0</title>
<path fill="none" stroke="#000000" d="M422.9325,-197C504.7486,-197 522.8002,-238.3843 599.3856,-241.7791"/>
<polygon fill="#000000" stroke="#000000" points="599.4692,-245.2817 609.543,-242 599.6215,-238.2833 599.4692,-245.2817"/>
<text text-anchor="middle" x="476.3153" y="-213.8" font-family="Times,serif" font-size="14.00" fill="#000000">==</text>
</g>
<!-- collateral_token_holder -->
<g id="node10" class="node">
<title>collateral_token_holder</title>
<polygon fill="none" stroke="#000000" points="879.6237,-77 879.6237,-173 1057.8112,-173 1057.8112,-77 879.6237,-77"/>
<text text-anchor="middle" x="968.7175" y="-156.2" font-family="Times,serif" font-size="16.00" fill="#000000">collateral_token_holder</text>
<polyline fill="none" stroke="#000000" points="879.6237,-149 1057.8112,-149 "/>
<text text-anchor="middle" x="968.7175" y="-132.2" font-family="Times,serif" font-size="16.00" fill="#000000">[spl&#45;token::Account mut]</text>
<polyline fill="none" stroke="#000000" points="879.6237,-125 1057.8112,-125 "/>
<text text-anchor="middle" x="968.7175" y="-108.2" font-family="Times,serif" font-size="16.00" fill="#000000">+mint</text>
<polyline fill="none" stroke="#000000" points="879.6237,-101 1057.8112,-101 "/>
<text text-anchor="middle" x="968.7175" y="-84.2" font-family="Times,serif" font-size="16.00" fill="#000000">+owner</text>
</g>
<!-- vault_type&#45;&gt;collateral_token_holder -->
<g id="edge6" class="edge">
<title>vault_type:collateral_token_holder&#45;&gt;collateral_token_holder:f0</title>
<path fill="none" stroke="#000000" d="M422.9325,-173C622.5474,-173 674.8574,-161.4067 869.4374,-161.0104"/>
<polygon fill="#000000" stroke="#000000" points="869.721,-164.5102 879.7175,-161 869.7139,-157.5102 869.721,-164.5102"/>
<text text-anchor="middle" x="672.543" y="-173.8" font-family="Times,serif" font-size="14.00" fill="#000000">==</text>
</g>
<!-- collateral_token_authority -->
<g id="node11" class="node">
<title>collateral_token_authority</title>
<ellipse fill="none" stroke="#000000" cx="672.543" cy="-51" rx="155.0796" ry="18"/>
<text text-anchor="middle" x="672.543" y="-46.2" font-family="Times,serif" font-size="16.00" fill="#000000">collateral_token_authority (PDA)</text>
</g>
<!-- vault_type&#45;&gt;collateral_token_authority -->
<g id="edge5" class="edge">
<title>vault_type:seeds&#45;&gt;collateral_token_authority</title>
<path fill="none" stroke="#000000" d="M422.9325,-125C469.7691,-125 472.7536,-92.6094 517.2533,-78 530.7729,-73.5615 545.2074,-69.8121 559.6273,-66.655"/>
<polygon fill="#000000" stroke="#000000" points="560.5286,-70.0422 569.5965,-64.5628 559.0908,-63.1914 560.5286,-70.0422"/>
<text text-anchor="middle" x="476.3153" y="-120.8" font-family="Times,serif" font-size="14.00" fill="#000000">PDA</text>
</g>
<!-- vault -->
<g id="node8" class="node">
<title>vault</title>
<polygon fill="none" stroke="#000000" points="8.0988,-109 8.0988,-205 144.5129,-205 144.5129,-109 8.0988,-109"/>
<text text-anchor="middle" x="76.3058" y="-188.2" font-family="Times,serif" font-size="16.00" fill="#000000">vault</text>
<polyline fill="none" stroke="#000000" points="8.0988,-181 144.5129,-181 "/>
<text text-anchor="middle" x="76.3058" y="-164.2" font-family="Times,serif" font-size="16.00" fill="#000000">[parrot::Vault mut]</text>
<polyline fill="none" stroke="#000000" points="8.0988,-157 144.5129,-157 "/>
<text text-anchor="middle" x="76.3058" y="-140.2" font-family="Times,serif" font-size="16.00" fill="#000000">+vault_type</text>
<polyline fill="none" stroke="#000000" points="8.0988,-133 144.5129,-133 "/>
<text text-anchor="middle" x="76.3058" y="-116.2" font-family="Times,serif" font-size="16.00" fill="#000000">+owner</text>
</g>
<!-- vault&#45;&gt;vault_type -->
<g id="edge7" class="edge">
<title>vault:vault_type&#45;&gt;vault_type:f0</title>
<path fill="none" stroke="#000000" d="M144.3058,-145C212.211,-145 179.2139,-256.726 236.8712,-268.0732"/>
<polygon fill="#000000" stroke="#000000" points="236.6536,-271.5679 246.9325,-269 237.2957,-264.5974 236.6536,-271.5679"/>
<text text-anchor="middle" x="193.5496" y="-258.8" font-family="Times,serif" font-size="14.00" fill="#000000">has_one</text>
</g>
<!-- vault_owner -->
<g id="node9" class="node">
<title>vault_owner</title>
<ellipse fill="none" stroke="#000000" cx="334.9325" cy="-76" rx="100.3898" ry="18"/>
<text text-anchor="middle" x="334.9325" y="-71.2" font-family="Times,serif" font-size="16.00" fill="#000000">vault_owner (signer)</text>
</g>
<!-- vault&#45;&gt;vault_owner -->
<g id="edge8" class="edge">
<title>vault:owner&#45;&gt;vault_owner</title>
<path fill="none" stroke="#000000" d="M144.3058,-121C156.8583,-121 218.3479,-106.0295 268.1466,-93.3579"/>
<polygon fill="#000000" stroke="#000000" points="269.1092,-96.7245 277.9325,-90.8594 267.3775,-89.9421 269.1092,-96.7245"/>
<text text-anchor="middle" x="193.5496" y="-118.8" font-family="Times,serif" font-size="14.00" fill="#000000">==</text>
</g>
<!-- collateral_token_authority&#45;&gt;collateral_token_holder -->
<g id="edge9" class="edge">
<title>collateral_token_authority&#45;&gt;collateral_token_holder:owner</title>
<path fill="none" stroke="#000000" stroke-dasharray="1,5" d="M761.336,-65.8591C783.1115,-69.6627 806.3373,-73.8542 827.8327,-78 847.1812,-81.7318 853.9658,-86.9112 869.441,-88.5102"/>
<polygon fill="#000000" stroke="#000000" points="869.5622,-92.0199 879.7175,-89 869.8954,-85.0278 869.5622,-92.0199"/>
<text text-anchor="middle" x="853.7282" y="-90.8" font-family="Times,serif" font-size="14.00" fill="#000000">==</text>
</g>
<!-- receiver -->
<g id="node12" class="node">
<title>receiver</title>
<polygon fill="none" stroke="#000000" points="583.4493,-364 583.4493,-436 761.6368,-436 761.6368,-364 583.4493,-364"/>
<text text-anchor="middle" x="672.543" y="-419.2" font-family="Times,serif" font-size="16.00" fill="#000000">receiver</text>
<polyline fill="none" stroke="#000000" points="583.4493,-412 761.6368,-412 "/>
<text text-anchor="middle" x="672.543" y="-395.2" font-family="Times,serif" font-size="16.00" fill="#000000">[spl&#45;token::Account mut]</text>
<polyline fill="none" stroke="#000000" points="583.4493,-388 761.6368,-388 "/>
<text text-anchor="middle" x="672.543" y="-371.2" font-family="Times,serif" font-size="16.00" fill="#000000">+mint</text>
</g>
<!-- receiver&#45;&gt;debt_token -->
<g id="edge10" class="edge">
<title>receiver:mint&#45;&gt;debt_token:f0</title>
<path fill="none" stroke="#000000" stroke-dasharray="1,5" d="M761.543,-376C775.9011,-376 862.9528,-351.5 895.4843,-345.375"/>
<polygon fill="#000000" stroke="#000000" points="896.2727,-348.8006 905.7175,-344 895.3404,-341.863 896.2727,-348.8006"/>
<text text-anchor="middle" x="853.7282" y="-358.8" font-family="Times,serif" font-size="14.00" fill="#000000">==</text>
</g>
</g>
</svg>
